<svg width="54" height="55" viewBox="0 0 54 55" fill="none" xmlns="http://www.w3.org/2000/svg">
<rect y="0.495605" width="54" height="54" rx="8" fill="#F3B357"/>
<path fill-rule="evenodd" clip-rule="evenodd" d="M33.2859 29.4883C35.2879 29.4883 36.9165 31.1088 36.9165 33.1003C36.9165 35.0918 35.2879 36.7123 33.2859 36.7123C31.2827 36.7123 29.6529 35.0918 29.6529 33.1003C29.6529 31.1088 31.2827 29.4883 33.2859 29.4883ZM33.2859 31.2383C32.2476 31.2383 31.4029 32.0736 31.4029 33.1003C31.4029 34.1281 32.2476 34.9623 33.2859 34.9623C34.323 34.9623 35.1665 34.1281 35.1665 33.1003C35.1665 32.0736 34.323 31.2383 33.2859 31.2383ZM24.7603 32.2706C25.2433 32.2706 25.6353 32.6626 25.6353 33.1456C25.6353 33.6286 25.2433 34.0206 24.7603 34.0206H17.4092C16.9262 34.0206 16.5342 33.6286 16.5342 33.1456C16.5342 32.6626 16.9262 32.2706 17.4092 32.2706H24.7603ZM20.1318 18.1623C22.135 18.1623 23.7637 19.784 23.7637 21.7755C23.7637 23.767 22.135 25.3863 20.1318 25.3863C18.1298 25.3863 16.5 23.767 16.5 21.7755C16.5 19.784 18.1298 18.1623 20.1318 18.1623ZM20.1318 19.9123C19.0947 19.9123 18.25 20.7476 18.25 21.7755C18.25 22.8021 19.0947 23.6363 20.1318 23.6363C21.1702 23.6363 22.0137 22.8021 22.0137 21.7755C22.0137 20.7476 21.1702 19.9123 20.1318 19.9123ZM35.3896 20.9628C35.8726 20.9628 36.2646 21.3548 36.2646 21.8378C36.2646 22.3208 35.8726 22.7128 35.3896 22.7128H28.0396C27.5566 22.7128 27.1646 22.3208 27.1646 21.8378C27.1646 21.3548 27.5566 20.9628 28.0396 20.9628H35.3896Z" fill="white"/>
</svg>
