<svg width="717" height="166" viewBox="0 0 717 166" fill="none" xmlns="http://www.w3.org/2000/svg">
<g clip-path="url(#clip0_175_4)">
<path fill-rule="evenodd" clip-rule="evenodd" d="M59.71 29.5468C49.9 35.9768 42.55 51.6668 63.78 56.9768C85.01 62.2768 144.11 77.0468 154 79.5168C163.89 81.9868 167.35 54.8068 164.57 43.3568C155.65 6.60683 86.12 12.2268 59.71 29.5468Z" fill="#2F5974"/>
<path fill-rule="evenodd" clip-rule="evenodd" d="M130.58 0.526798C139.57 2.7768 145.03 11.8768 142.79 20.8668C140.54 29.8568 131.44 35.3168 122.45 33.0768C113.46 30.8368 108 21.7268 110.24 12.7368C112.48 3.7468 121.59 -1.7132 130.58 0.526798Z" fill="#F4B457"/>
<path fill-rule="evenodd" clip-rule="evenodd" d="M29.55 105.787C35.98 115.597 51.67 122.947 56.98 101.717C62.28 80.4868 77.05 21.3868 79.52 11.4968C81.99 1.6068 54.81 -1.8532 43.36 0.926805C6.61 9.8468 12.23 79.3768 29.55 105.787Z" fill="#F4B457"/>
<path fill-rule="evenodd" clip-rule="evenodd" d="M0.529953 34.9068C2.77995 25.9168 11.88 20.4568 20.87 22.6968C29.86 24.9468 35.32 34.0468 33.08 43.0368C30.83 52.0268 21.73 57.4868 12.74 55.2468C3.74995 53.0068 -1.72005 43.8968 0.529953 34.9068Z" fill="#8FBAD2"/>
<path fill-rule="evenodd" clip-rule="evenodd" d="M105.79 135.947C115.6 129.517 122.95 113.827 101.72 108.517L97.6 107.487L92.65 127.287L77.8 102.537L11.5 85.9768C1.60998 83.5068 -1.85002 110.687 0.929979 122.137C9.84998 158.887 79.38 153.267 105.79 135.947Z" fill="#8FBAD2"/>
<path fill-rule="evenodd" clip-rule="evenodd" d="M34.92 164.967C25.93 162.727 20.47 153.617 22.71 144.627C24.96 135.637 34.06 130.177 43.05 132.417C52.04 134.667 57.5 143.767 55.26 152.757C53.01 161.747 43.91 167.207 34.92 164.967Z" fill="#F0F0B3"/>
<path fill-rule="evenodd" clip-rule="evenodd" d="M135.95 59.7068C129.52 49.8968 113.83 42.5468 108.52 63.7768C103.22 85.0068 88.45 144.107 85.98 153.997C83.51 163.887 110.69 167.347 122.14 164.567C158.89 155.647 153.27 86.1168 135.95 59.7068Z" fill="#F0F0B3"/>
<path fill-rule="evenodd" clip-rule="evenodd" d="M164.97 130.577C162.72 139.567 153.62 145.027 144.63 142.787C135.64 140.547 130.18 131.437 132.42 122.447C134.67 113.457 143.77 107.997 152.76 110.237C161.75 112.487 167.21 121.587 164.97 130.577Z" fill="#2F5974"/>
<path fill-rule="evenodd" clip-rule="evenodd" d="M73.58 77.9968C74.86 78.3168 75.63 79.6068 75.31 80.8868C74.99 82.1568 73.7 82.9368 72.42 82.6168C71.14 82.2968 70.37 81.0068 70.69 79.7268C71.01 78.4468 72.3 77.6768 73.58 77.9968Z" fill="#07394A"/>
<path fill-rule="evenodd" clip-rule="evenodd" d="M83.33 80.4368C84.61 80.7568 85.38 82.0468 85.06 83.3268C84.74 84.6068 83.45 85.3768 82.17 85.0568C80.9 84.7368 80.12 83.4468 80.44 82.1668C80.76 80.8868 82.05 80.1168 83.33 80.4368Z" fill="#07394A"/>
<path fill-rule="evenodd" clip-rule="evenodd" d="M93.07 82.8768C94.35 83.1968 95.12 84.4868 94.8 85.7668C94.48 87.0368 93.19 87.8168 91.92 87.4968C90.64 87.1768 89.87 85.8868 90.19 84.6068C90.51 83.3368 91.8 82.5568 93.08 82.8768H93.07Z" fill="#07394A"/>
<path opacity="0.5" fill-rule="evenodd" clip-rule="evenodd" d="M55.74 149.367C56.06 141.587 50.9 134.387 43.04 132.427C34.05 130.177 24.95 135.647 22.7 144.637C22.7 144.647 22.7 144.657 22.7 144.677C32.29 148.397 43.9599 149.767 55.75 149.377L55.74 149.367Z" fill="#8FBAD2"/>
<path fill-rule="evenodd" clip-rule="evenodd" d="M29.55 105.787C35.98 115.597 51.67 122.947 56.98 101.717L58.01 97.5968L21.71 88.5268C23.86 95.2268 26.53 101.167 29.56 105.787H29.55Z" fill="#F4B457"/>
<path opacity="0.5" fill-rule="evenodd" clip-rule="evenodd" d="M16.13 55.7368C23.91 56.0568 31.11 50.8968 33.08 43.0368C35.33 34.0468 29.86 24.9468 20.87 22.6968C20.86 22.6968 20.85 22.6968 20.83 22.6968C17.11 32.2868 15.74 43.9568 16.13 55.7368Z" fill="#F4B457"/>
<path fill-rule="evenodd" clip-rule="evenodd" d="M59.71 29.5468C49.9 35.9768 42.55 51.6668 63.78 56.9768L67.9 58.0068L76.97 21.7068C70.27 23.8568 64.33 26.5268 59.71 29.5568V29.5468Z" fill="#07394A"/>
<path fill-rule="evenodd" clip-rule="evenodd" d="M109.76 16.1268C109.44 23.9068 114.6 31.1068 122.46 33.0768C131.45 35.3268 140.55 29.8568 142.8 20.8668C142.8 20.8568 142.8 20.8468 142.8 20.8268C133.21 17.1068 121.54 15.7368 109.76 16.1268Z" fill="#07394A"/>
<path fill-rule="evenodd" clip-rule="evenodd" d="M135.95 59.7068C129.52 49.8968 113.83 42.5468 108.52 63.7768L107.49 67.8968L143.79 76.9668C141.64 70.2668 138.97 64.3268 135.94 59.7068H135.95Z" fill="#F0F0B3"/>
<path opacity="0.5" fill-rule="evenodd" clip-rule="evenodd" d="M149.37 109.757C141.59 109.437 134.39 114.597 132.42 122.457C130.17 131.447 135.64 140.547 144.63 142.797C144.64 142.797 144.65 142.797 144.67 142.797C148.39 133.207 149.76 121.547 149.37 109.757Z" fill="#F0F0B3"/>
<path fill-rule="evenodd" clip-rule="evenodd" d="M105.79 135.947C115.6 129.517 122.95 113.827 101.72 108.517L97.6 107.487L92.65 127.287L88.53 143.787C95.23 141.637 101.17 138.967 105.79 135.937V135.947Z" fill="#8FBAD2"/>
<path d="M227.008 87.013C227.008 90.847 225.801 94.823 226.724 98.657C227.363 100.645 229.28 101.639 231.126 101.639C232.759 101.639 234.392 100.929 235.244 99.367C237.232 92.693 236.451 85.309 237.303 78.28C237.587 74.091 252.994 76.718 255.905 72.955C258.816 70.328 257.041 65.358 253.065 65.216C248.379 65.5 243.622 66.423 238.936 66.991C236.309 67.275 237.8 62.66 237.232 61.027C237.09 59.252 237.09 59.252 238.865 58.968C244.261 57.477 257.041 60.388 257.041 52.649C256.686 49.383 254.13 48.46 250.793 48.46C246.817 48.46 241.847 49.738 238.51 49.738C236.664 49.738 235.315 49.383 235.031 48.105C234.747 47.324 234.108 46.898 233.398 46.898C232.617 46.898 231.907 47.324 231.41 48.105C230.7 49.596 230.984 51.371 229.067 52.081C225.659 53.856 224.026 58.826 228.002 60.885C228.854 61.382 229.067 61.95 228.925 62.873C228.286 65.5 228.854 68.553 227.292 70.896C226.156 72.245 226.085 73.878 227.079 75.369C228.357 79.061 226.866 83.179 227.008 87.013ZM261.952 83.676C261.242 92.835 269.123 102.633 277.643 102.633C280.696 102.633 283.891 101.426 286.731 98.444C294.47 90.066 298.588 69.476 282.755 67.488C278.85 66.849 275.087 68.127 271.182 68.34C263.94 68.624 262.094 77.996 261.952 83.676ZM279.347 75.937C283.891 75.866 285.169 77.144 284.672 81.12C284.033 85.309 283.11 90.066 279.702 93.19C278.779 93.758 277.856 93.971 277.075 93.971C271.466 93.971 269.336 82.327 271.75 78.138C273.028 75.937 277.359 76.292 279.347 75.937ZM301.557 89.569C301.628 93.048 301.273 96.598 302.551 99.864C303.332 101.994 304.894 102.988 306.456 102.988C308.515 102.988 310.432 101.142 310.148 97.876C309.367 91.841 309.154 85.735 310.503 79.842C311.568 75.44 314.266 73.097 318.242 72.316C319.023 72.174 319.662 72.103 320.159 72.884C322.005 75.937 317.816 77.215 316.822 79.558C315.26 82.895 317.745 85.451 320.514 85.451C321.508 85.451 322.502 85.096 323.354 84.386C331.945 79.558 330.241 62.731 318.1 63.512C314.124 63.725 310.716 65.429 308.089 68.056C308.657 64.08 306.882 62.376 304.965 62.376C303.119 62.376 301.06 63.867 300.634 66.281C299.995 69.192 301.273 86.516 301.557 89.569ZM358.296 82.611C359.29 87.936 354.959 96.385 361.065 99.296C361.562 99.438 362.059 99.509 362.556 99.509C363.976 99.509 365.325 98.87 366.39 97.592C370.082 92.409 371.431 85.877 374.271 80.197C374.555 79.771 374.626 79.203 375.407 79.061C375.833 84.812 375.904 101.568 383.714 101.568C384.424 101.568 385.134 101.426 385.986 101.142C390.956 97.805 385.276 92.338 385.276 87.936C384.353 82.824 385.134 77.428 383.714 72.458C382.578 69.05 380.093 67.701 377.324 67.701C373.348 67.701 368.733 70.612 366.887 74.304C364.402 69.76 362.13 68.056 359.929 68.056C354.533 68.056 349.989 78.564 346.368 84.102C344.806 79.416 345.942 74.304 344.167 69.689C343.528 67.772 342.321 66.92 341.043 66.92C339.126 66.92 337.138 68.695 336.996 71.251C335.434 77.428 336.57 98.018 344.664 98.018C345.942 98.018 347.433 97.521 349.137 96.314C353.255 92.409 354.675 86.658 358.296 82.611ZM420.461 85.735C422.449 91.273 422.52 97.379 425.573 102.42C426.425 103.485 427.632 103.982 428.768 103.982C431.04 103.982 433.312 102.207 432.957 99.509C430.969 91.699 428.91 83.889 427.703 76.008C428.555 75.582 429.123 76.079 429.833 76.079C434.377 76.15 431.466 70.328 429.336 68.908C424.863 65.003 418.615 64.009 412.935 62.944C401.22 61.595 397.173 77.57 395.682 86.516C395.398 91.77 398.38 96.101 403.066 97.166C403.847 97.379 404.699 97.45 405.409 97.45C412.154 97.45 416.698 90.847 420.461 85.735ZM418.189 73.097C414.568 78.422 411.87 84.244 406.829 88.22C406.332 88.504 405.906 88.575 405.551 88.575C401.859 88.575 407.965 75.014 409.172 73.452C409.882 72.032 410.876 71.606 412.083 71.606C414 71.606 416.343 72.742 418.189 73.097Z" fill="#F4B457"/>
<path d="M461.415 76.647C464.823 72.884 480.372 68.056 477.674 61.24C476.68 59.536 475.331 58.897 473.911 58.897C470.645 58.897 466.669 62.092 464.042 63.441C456.658 67.346 453.463 69.973 452.043 69.973C450.339 69.973 451.404 66.139 451.049 56.199C451.475 53.075 449.558 50.377 447.499 50.377C446.505 50.377 445.369 51.087 444.517 52.862C443.381 54.495 441.961 67.559 441.961 69.618C441.322 77.996 443.026 91.415 440.115 99.296C439.263 103.13 441.748 105.331 444.375 105.331C446.15 105.331 448.067 104.266 448.919 101.923C451.12 97.876 450.765 88.788 450.907 84.244C450.907 83.818 450.765 83.25 451.404 82.895C461.486 88.362 472.846 90.989 483.78 93.403C488.111 94.397 490.809 88.291 487.827 85.096C484.206 81.759 478.952 82.895 474.692 81.191C470.29 79.558 465.604 78.777 461.415 76.647ZM503.105 64.648C505.093 61.879 508.43 59.394 508.501 55.489C508.217 53.288 507.294 52.436 506.016 52.436C502.608 52.436 496.999 58.968 497.283 62.092C497.212 64.222 499.129 65.784 500.904 65.784C501.756 65.784 502.537 65.5 503.105 64.648ZM504.17 73.736C504.028 71.109 501.898 69.618 499.768 69.618C498.277 69.618 496.857 70.257 496.005 71.748C493.875 76.505 493.804 81.333 493.378 87.084C493.307 90.137 493.236 94.894 495.224 98.018C496.076 99.225 497.354 99.722 498.632 99.722C500.549 99.722 502.466 98.586 502.963 96.456C503.531 93.829 502.324 91.273 502.466 88.646C502.324 83.534 503.673 78.706 504.17 73.736ZM526.017 102.136C537.803 102.136 547.53 93.758 544.761 82.043C544.619 81.12 544.619 80.197 545.045 79.416C546.465 77.073 544.122 75.369 543.767 73.168C542.56 62.589 542.347 57.69 541.211 47.04C540.856 45.762 540.217 44.768 538.797 44.555C531.768 44.484 533.117 56.128 533.33 60.885C533.756 64.861 534.182 68.837 534.537 72.742C534.75 74.162 534.679 74.091 533.259 74.446C523.106 75.937 504.575 85.167 514.018 96.669C517.071 100.219 521.118 101.994 526.017 102.136ZM535.886 85.877C536.525 90.35 531.342 93.332 526.727 93.332C524.526 93.332 522.467 92.693 521.189 91.273C520.621 90.634 520.621 89.995 521.189 89.427C524.739 86.09 529.283 84.102 534.111 83.25C536.312 82.469 535.673 84.457 535.886 85.877ZM564.379 59.962C554.652 59.394 551.741 73.31 557.776 79.487C561.61 84.812 570.982 85.238 572.047 92.693C572.047 95.249 570.556 96.101 568.781 96.101C566.367 96.101 563.243 94.61 561.681 93.403C559.054 91.699 561.255 87.368 556.285 87.794C543.576 93.403 559.409 104.976 568.923 104.976C570.272 104.976 571.55 104.763 572.544 104.195C581.632 101.781 582.697 89.214 576.591 82.895C573.751 77.996 560.758 75.937 563.456 69.263C563.74 68.766 564.166 68.624 564.663 68.624C565.444 68.624 566.296 68.979 566.935 69.05C570.272 69.902 573.183 71.606 576.165 73.239C578.792 74.091 579.218 70.754 578.508 68.837C576.662 62.518 570.13 59.962 564.379 59.962Z" fill="#2F5974"/>
</g>
<defs>
<clipPath id="clip0_175_4">
<rect width="716.58" height="165.5" fill="white"/>
</clipPath>
</defs>
</svg>
